<svg width="64" height="64" viewBox="-1 8 48 54" fill="none" xmlns="http://www.w3.org/2000/svg">
<path d="M21.3242 10.959C22.3297 10.3785 23.5687 10.3786 24.5742 10.959L42.5244 21.3223C43.5299 21.9028 44.1494 22.9757 44.1494 24.1367V44.8633C44.1494 46.0243 43.5299 47.0972 42.5244 47.6777L24.5742 58.041C23.5687 58.6214 22.3297 58.6215 21.3242 58.041L3.375 47.6777C2.36948 47.0972 1.75001 46.0244 1.75 44.8633V24.1367C1.75001 22.9756 2.36948 21.9028 3.375 21.3223L21.3242 10.959Z" stroke="#FF5622" stroke-width="3.5"/>
<path d="M30.2383 41.792C30.9626 41.7922 31.5703 42.4007 31.5703 43.125C31.5702 43.9011 30.9556 44.4569 30.2383 44.457H15.083C14.3135 44.457 13.7501 43.8944 13.75 43.125C13.75 42.3555 14.3135 41.792 15.083 41.792H30.2383ZM22.6602 23.75C23.3912 23.75 23.9932 24.3651 23.9932 25.1279V35.4541L27.4395 31.7676C27.9481 31.2066 28.7812 31.2211 29.3223 31.708C29.887 32.2163 29.8747 33.0525 29.3867 33.5947L29.3828 33.5986L23.6123 39.7275L23.6133 39.7285C23.108 40.2899 22.1674 40.2899 21.6621 39.7285V39.7275L15.8926 33.5986L15.8887 33.5947C15.4007 33.0525 15.3884 32.2163 15.9531 31.708L15.958 31.7031L15.9639 31.6982C16.2344 31.4818 16.5603 31.3731 16.8867 31.373C17.2163 31.373 17.5528 31.4845 17.8301 31.7617L17.835 31.7666L21.3281 35.459V25.1279C21.3281 24.3721 21.8774 23.7501 22.6602 23.75Z" fill="#FF5622" stroke="#FF5622" stroke-width="0.5"/>
</svg>
